<?xml version="1.0" standalone="no"?>
<!DOCTYPE svg PUBLIC "-//W3C//DTD SVG 20010904//EN"
 "http://www.w3.org/TR/2001/REC-SVG-20010904/DTD/svg10.dtd">
<svg version="1.0" xmlns="http://www.w3.org/2000/svg"
 width="600.000000pt" height="403.000000pt" viewBox="0 0 600.000000 403.000000"
 preserveAspectRatio="xMidYMid meet">
<g transform="translate(0.000000,403.000000) scale(0.100000,-0.100000)"
fill="#E9E2D2" stroke="none">
<path d="M5299 2404 c-61 -51 -175 -124 -193 -124 -9 0 -29 -12 -43 -26 l-25
-26 -59 22 c-44 17 -63 31 -78 56 -23 38 -71 71 -118 80 -28 5 -40 -1 -100
-51 -61 -52 -175 -115 -208 -115 -7 0 -62 -40 -123 -90 -62 -49 -124 -96 -139
-103 -50 -25 -183 -68 -211 -67 -129 2 -170 10 -238 42 -15 7 -28 6 -43 -2
-15 -7 -26 -8 -34 -2 -7 6 -34 13 -62 17 -127 16 -241 37 -249 46 -6 5 -18 9
-27 9 -10 0 -31 8 -47 17 -28 16 -32 16 -49 2 -35 -32 -83 -31 -189 2 -54 17
-124 37 -154 44 -30 7 -75 18 -100 24 -25 6 -83 15 -129 21 -73 9 -88 8 -110
-7 -14 -9 -30 -22 -34 -30 -13 -21 -104 -15 -187 12 -50 17 -85 23 -108 19
-22 -4 -38 -2 -50 9 -9 8 -46 18 -82 22 -36 3 -69 10 -75 14 -20 16 -66 18
-115 5 -66 -17 -66 -17 -78 -67 -18 -70 -51 -134 -80 -157 -15 -12 -32 -31
-38 -42 -6 -10 -21 -25 -34 -31 -22 -11 -33 -7 -113 46 -48 32 -92 68 -96 80
-13 32 -88 110 -99 103 -6 -3 -23 10 -39 29 -84 104 -93 112 -136 121 -23 4
-49 8 -58 9 -9 0 -29 15 -43 32 -31 37 -78 51 -112 33 -20 -11 -26 -9 -54 19
-17 17 -37 31 -43 31 -25 0 -74 -59 -87 -104 -10 -36 -23 -54 -67 -87 -30 -24
-63 -59 -73 -78 -24 -46 -77 -101 -96 -101 -9 0 -39 -24 -67 -53 -29 -29 -68
-66 -87 -83 -19 -16 -43 -41 -52 -55 -9 -15 -34 -35 -55 -46 -25 -13 -54 -44
-84 -87 -35 -52 -59 -75 -100 -97 -54 -30 -129 -95 -129 -112 0 -5 23 12 52
38 29 26 72 57 97 69 33 17 57 42 91 92 34 50 58 74 88 89 23 11 45 28 48 38
3 10 24 34 47 55 23 20 65 61 93 90 28 28 58 52 65 52 19 0 82 66 102 106 9
17 40 49 70 72 46 35 58 50 72 97 10 30 23 55 30 55 7 0 15 7 19 15 8 23 28
18 64 -15 18 -16 37 -30 42 -30 5 0 25 -25 45 -55 21 -30 42 -58 48 -62 11 -7
10 -5 -41 76 -23 37 -31 56 -24 63 16 16 69 -9 93 -44 12 -16 28 -28 38 -27 9
1 35 -2 58 -6 43 -8 52 -15 136 -120 16 -19 37 -35 47 -35 18 0 81 -69 93
-102 9 -24 192 -143 260 -168 44 -16 61 -29 73 -53 9 -18 47 -61 84 -97 38
-37 72 -80 79 -100 6 -19 24 -47 39 -63 l27 -29 -59 26 c-68 30 -187 68 -193
62 -9 -8 -168 76 -198 105 -25 23 -48 32 -120 45 -50 9 -98 20 -107 25 -25 13
-32 11 -19 -5 7 -8 31 -17 54 -21 112 -17 148 -28 184 -57 46 -37 193 -108
223 -108 12 0 68 -18 124 -40 56 -22 106 -40 110 -40 5 0 25 -13 45 -29 40
-32 126 -76 218 -114 34 -14 77 -37 96 -51 18 -14 50 -32 71 -41 35 -15 43
-15 117 5 56 14 110 20 189 20 122 0 114 -2 342 98 75 33 166 70 201 81 36 12
91 40 122 62 32 22 59 38 62 35 2 -2 -17 -26 -44 -54 -26 -27 -56 -63 -65 -80
-9 -18 -32 -38 -50 -46 -86 -37 -86 -37 -48 -30 53 10 90 32 108 67 10 17 30
45 47 62 39 40 97 115 88 115 -10 0 47 58 81 82 l28 21 -12 -22 c-9 -18 -8
-37 4 -91 23 -99 21 -122 -14 -155 -16 -16 -30 -33 -30 -39 0 -15 50 35 67 67
11 22 12 36 4 59 -6 16 -13 58 -16 91 -7 72 0 84 63 116 24 12 71 49 104 81
34 33 68 60 75 60 8 0 26 8 39 19 42 33 87 35 156 6 35 -15 77 -32 93 -37 17
-6 44 -18 62 -27 18 -8 35 -12 38 -9 7 7 -51 38 -70 38 -6 0 -33 11 -59 24
-26 13 -64 27 -84 31 l-37 7 80 28 c112 38 131 49 256 150 61 49 115 88 119
85 4 -3 39 10 76 29 60 29 75 33 114 27 60 -9 70 -17 70 -51 0 -16 4 -31 9
-35 17 -10 0 69 -17 83 -9 6 -34 12 -56 12 l-41 1 60 54 c33 30 65 55 70 55 6
0 29 -9 52 -19 51 -24 100 -90 85 -117 -9 -16 -4 -41 20 -104 6 -14 12 -54 14
-90 2 -36 10 -83 18 -105 24 -68 26 -102 9 -162 -8 -32 -21 -80 -28 -108 -11
-48 -12 -49 -19 -21 -4 16 -21 49 -38 74 -30 43 -32 51 -32 143 -1 70 -5 102
-15 111 -12 11 -13 10 -5 -7 4 -11 8 -60 9 -110 0 -81 3 -95 30 -140 16 -27
39 -70 51 -95 l23 -45 0 36 c1 20 11 65 22 100 27 79 29 157 7 229 -17 56 -31
140 -24 140 6 0 60 -88 83 -135 59 -120 90 -174 120 -211 18 -22 44 -67 58
-99 15 -32 46 -78 71 -102 24 -24 44 -52 44 -61 0 -16 44 -72 57 -72 3 0 -1 8
-10 18 -8 9 -29 44 -46 76 -27 53 -30 66 -24 114 4 41 14 64 36 88 29 34 30
46 10 101 -6 17 -6 17 15 -1 11 -10 24 -32 27 -48 7 -30 53 -139 54 -127 1 3
-12 43 -28 89 -21 61 -36 89 -60 107 -35 28 -37 23 -16 -37 15 -42 14 -43 -14
-79 -22 -28 -31 -52 -37 -100 l-7 -62 -19 28 c-11 15 -29 51 -42 78 -13 28
-38 70 -57 95 -40 51 -99 152 -99 168 0 10 -40 83 -103 185 -34 56 -55 126
-43 145 3 5 43 -4 89 -20 74 -26 86 -34 100 -64 9 -19 24 -34 33 -34 10 0 39
-21 66 -47 38 -38 48 -55 48 -80 0 -28 12 -44 71 -100 39 -37 77 -83 85 -101
7 -18 29 -52 49 -74 19 -23 45 -62 57 -87 30 -64 64 -97 82 -82 12 10 19 3 41
-41 14 -29 40 -67 56 -83 16 -17 29 -35 29 -39 0 -5 15 -27 33 -50 19 -23 42
-65 51 -94 15 -43 27 -60 71 -92 30 -22 66 -56 81 -75 15 -20 29 -33 31 -31
10 9 -53 80 -104 117 -43 32 -55 48 -67 89 -8 28 -31 70 -51 94 -19 24 -35 47
-35 53 0 5 -13 21 -28 36 -16 15 -39 48 -51 72 -12 25 -27 47 -32 51 -13 8 7
31 51 59 47 30 87 136 94 253 3 46 8 95 12 110 5 24 4 25 -7 8 -6 -11 -15 -62
-19 -115 -4 -53 -15 -117 -25 -143 l-17 -48 -48 0 c-44 0 -109 -16 -99 -24 2
-1 34 0 72 3 37 4 67 3 67 -1 0 -4 -18 -19 -40 -33 -22 -14 -40 -30 -40 -35 0
-5 -9 -14 -20 -20 -26 -14 -48 7 -80 73 -12 27 -36 63 -52 80 -17 18 -38 50
-48 72 -9 22 -47 68 -83 102 -51 47 -67 70 -73 99 -8 41 -82 126 -121 138 -12
4 -25 16 -28 26 -3 11 -18 29 -33 41 l-27 21 24 19 c26 21 37 24 46 9 3 -5 14
-10 23 -10 14 0 15 2 2 10 -17 11 -21 7 65 65 39 27 78 48 87 47 10 0 28 11
40 26 23 27 24 27 138 25 103 -2 117 -5 133 -24 25 -31 22 -35 -22 -31 -21 2
-41 0 -45 -6 -3 -5 -20 -7 -37 -3 -23 4 -58 -2 -120 -23 l-89 -30 45 -19 c44
-19 44 -19 70 1 14 11 40 24 58 27 18 4 46 16 64 27 34 20 82 20 136 -1 16 -6
39 -11 52 -11 18 0 26 -8 35 -35 6 -19 18 -35 26 -35 8 0 14 -8 14 -18 0 -38
28 -60 93 -71 74 -13 107 -14 107 -3 0 4 -12 8 -27 9 -118 9 -149 22 -158 62
-4 17 -12 31 -19 31 -6 0 -18 16 -24 34 -13 36 -20 40 -84 50 -23 4 -39 13
-43 25 -3 10 -15 27 -26 37 -18 16 -39 19 -151 20 l-129 1 -40 -33z m50 13
c-2 -1 -15 -11 -29 -22 l-25 -20 19 23 c11 12 24 22 29 22 6 0 8 -1 6 -3z
m151 -79 c-19 -5 -52 -18 -73 -29 -28 -15 -47 -18 -70 -13 -31 7 -31 7 33 29
36 12 83 22 105 23 l40 0 -35 -10z m-3474 -130 c2 -2 8 -40 14 -84 12 -80 55
-204 72 -204 5 0 6 5 3 10 -4 6 -2 16 3 23 5 7 12 44 15 82 3 39 8 81 12 95 6
20 5 23 -5 13 -7 -6 -18 -54 -24 -105 l-12 -93 -17 43 c-9 23 -23 81 -31 127
l-13 85 66 -6 c42 -5 70 -13 77 -23 9 -11 26 -15 59 -13 29 1 75 -8 120 -23
91 -32 141 -32 173 -2 l24 22 -7 -30 c-17 -75 -39 -134 -48 -128 -6 4 -8 -3
-4 -16 3 -13 3 -20 -1 -17 -14 14 -41 -82 -41 -146 -1 -38 2 -68 5 -68 19 0
33 41 34 95 0 38 11 93 29 150 16 49 32 107 36 128 3 21 13 41 22 44 18 7 210
-18 298 -40 33 -8 105 -28 161 -46 110 -34 168 -39 198 -16 22 17 66 20 66 5
0 -5 9 -10 20 -10 11 0 28 -4 38 -9 47 -24 76 -30 179 -40 62 -6 121 -16 132
-23 15 -9 26 -9 44 -1 14 6 28 8 33 4 23 -20 107 -43 137 -37 18 3 46 2 62 -3
23 -7 25 -9 9 -10 -12 -1 -33 -10 -47 -21 -14 -11 -31 -20 -39 -20 -8 0 -41
-27 -75 -59 -36 -36 -90 -74 -134 -97 -42 -21 -99 -61 -134 -94 -80 -77 -131
-110 -169 -110 -18 0 -56 -7 -86 -15 -30 -9 -89 -20 -130 -26 -41 -6 -82 -17
-90 -24 -9 -8 -47 -21 -84 -29 -125 -26 -100 -45 49 -37 28 2 48 1 45 -2 -3
-2 -43 -21 -90 -42 -81 -36 -91 -38 -230 -45 -80 -4 -161 -12 -180 -19 -67
-22 -118 -9 -182 45 -15 12 -65 37 -110 54 -46 17 -87 36 -93 41 -16 15 78 10
109 -6 15 -8 48 -15 73 -15 24 0 56 -6 71 -14 28 -14 84 -10 142 12 17 6 35 5
57 -5 28 -11 43 -11 99 0 36 8 76 12 89 10 12 -3 25 0 29 5 6 10 -31 9 -140
-3 -40 -5 -68 -4 -82 4 -17 9 -33 8 -74 -4 -59 -17 -110 -19 -124 -5 -5 5 -35
11 -66 13 -30 3 -61 8 -68 12 -27 16 5 119 76 248 9 15 14 32 12 38 -7 20
-100 -178 -105 -224 l-6 -47 -63 0 c-51 0 -72 5 -102 24 -60 38 -120 103 -127
136 -4 20 -34 58 -84 108 -43 42 -81 87 -85 100 -8 23 -58 54 -108 66 -33 8
-37 23 -7 28 12 2 27 12 33 22 6 11 25 32 43 48 22 20 41 55 64 118 17 50 34
91 38 91 3 1 16 3 29 4 12 1 26 6 30 10 7 7 79 1 88 -7z m464 -365 c0 -48 -3
-64 -10 -53 -11 17 -13 64 -4 98 10 37 14 25 14 -45z m1040 -227 c0 -2 -8 -10
-17 -17 -16 -13 -17 -12 -4 4 13 16 21 21 21 13z m-160 -91 c0 -2 -29 -13 -63
-24 -35 -11 -94 -33 -132 -50 -37 -17 -71 -29 -75 -26 -5 3 -10 2 -12 -2 -1
-5 -41 -5 -88 -2 -47 3 -71 6 -55 7 43 3 107 22 125 37 8 7 44 16 78 19 35 4
76 12 90 18 22 8 66 18 125 27 4 0 7 -1 7 -4z"/>
<path d="M1890 2170 c0 -25 20 -92 40 -135 10 -22 23 -56 28 -75 l10 -35 1 30
c0 17 -13 57 -29 90 -16 33 -30 71 -30 85 0 14 -5 32 -10 40 -9 13 -10 13 -10
0z"/>
<path d="M2589 2134 c-6 -16 -15 -42 -19 -59 -4 -16 -10 -41 -14 -55 -7 -24
-6 -24 8 -6 9 11 16 30 16 42 0 12 7 38 16 59 8 20 13 40 10 42 -3 3 -11 -7
-17 -23z"/>
<path d="M2792 2098 c-17 -57 -20 -78 -12 -78 5 0 12 17 16 38 4 20 11 45 16
55 5 10 5 17 -1 17 -5 0 -14 -15 -19 -32z"/>
<path d="M1992 2050 c-1 -52 65 -250 100 -302 10 -14 18 -43 19 -65 0 -30 2
-34 9 -18 10 25 2 64 -21 93 -10 13 -21 37 -25 55 -3 18 -15 49 -25 70 -11 20
-28 72 -38 115 -11 42 -19 66 -19 52z"/>
<path d="M3270 2059 c0 -9 24 -44 54 -77 30 -33 57 -74 61 -90 3 -17 14 -33
23 -37 14 -5 15 -4 5 6 -7 7 -13 23 -13 34 0 12 -24 48 -53 81 -30 32 -59 68
-65 79 -9 16 -11 17 -12 4z"/>
<path d="M2245 1997 c-4 -29 -5 -85 -3 -125 2 -60 1 -70 -9 -55 -7 9 -13 22
-13 29 0 7 -4 15 -9 19 -18 11 8 -56 33 -86 32 -38 34 -90 5 -131 -15 -21 -22
-48 -24 -94 -2 -38 0 -62 6 -59 5 4 9 32 9 64 0 45 5 65 22 87 27 33 30 94 6
121 -18 21 -24 172 -9 236 5 20 5 39 1 42 -5 3 -12 -19 -15 -48z"/>
<path d="M3025 2009 c-22 -5 -10 -7 40 -8 39 0 76 3 84 8 17 11 -78 11 -124 0z"/>
<path d="M2810 2000 c33 -11 120 -12 120 -2 0 4 -33 9 -72 9 -51 1 -65 -1 -48
-7z"/>
<path d="M3480 2009 c0 -3 9 -32 20 -65 14 -41 19 -71 14 -100 -4 -28 -2 -44
6 -49 9 -5 10 -1 6 13 -4 12 -2 30 4 41 8 16 6 33 -8 73 -17 50 -41 100 -42
87z"/>
<path d="M2625 1990 c-7 -12 31 -12 95 -1 44 8 44 9 -22 10 -37 0 -70 -3 -73
-9z"/>
<path d="M3716 1957 c3 -10 9 -15 12 -12 3 3 0 11 -7 18 -10 9 -11 8 -5 -6z"/>
<path d="M3075 1917 c9 -21 20 -61 25 -89 12 -62 21 -73 81 -104 26 -13 52
-32 58 -41 6 -10 11 -13 11 -6 0 17 -26 41 -69 63 -50 25 -55 33 -75 115 -9
38 -23 76 -32 85 -13 13 -13 10 1 -23z"/>
<path d="M1810 1906 c33 -31 132 -139 180 -196 l21 -25 -18 33 c-10 18 -45 62
-78 97 -33 36 -65 70 -71 77 -18 20 -53 48 -62 48 -4 0 9 -15 28 -34z"/>
<path d="M3737 1878 c8 -57 13 -61 13 -10 0 22 -4 43 -9 46 -5 4 -7 -12 -4
-36z"/>
<path d="M2331 1875 c-1 -22 -10 -60 -21 -84 -15 -33 -16 -40 -5 -31 21 17 37
78 32 120 l-4 35 -2 -40z"/>
<path d="M2756 1863 c-2 -10 -10 -44 -15 -77 -8 -41 -21 -71 -44 -100 -48 -59
-80 -131 -83 -190 l-3 -51 13 55 c19 78 41 127 83 178 28 35 39 59 50 119 8
41 12 77 9 80 -2 2 -7 -4 -10 -14z"/>
<path d="M2600 1844 c-7 -16 -15 -48 -20 -72 -4 -24 -19 -55 -33 -70 -32 -33
-67 -108 -66 -142 0 -17 6 -7 19 30 11 30 20 55 20 56 0 1 16 21 35 45 19 24
35 54 35 65 0 12 7 41 15 64 17 48 12 69 -5 24z"/>
<path d="M2192 1757 c-1 -38 -10 -73 -26 -105 -14 -26 -28 -60 -31 -77 -3 -16
10 4 30 45 31 65 35 82 32 135 l-3 60 -2 -58z"/>
<path d="M3056 1733 c12 -19 19 -49 20 -88 1 -33 9 -78 18 -100 l17 -40 -6 35
c-4 19 -10 64 -14 100 -8 67 -27 120 -44 120 -5 0 -1 -12 9 -27z"/>
<path d="M2946 1733 c8 -16 10 -99 5 -148 -3 -28 21 -115 31 -115 5 0 6 10 2
23 -17 52 -21 87 -16 135 5 60 -4 122 -20 122 -6 0 -7 -7 -2 -17z"/>
<path d="M2423 1643 c-43 -104 -61 -177 -45 -187 5 -3 12 18 15 47 3 28 22 92
42 140 20 49 35 91 32 93 -2 2 -22 -40 -44 -93z"/>
<path d="M3317 1727 c3 -6 33 -7 69 -4 34 3 75 3 91 -2 31 -8 123 -3 123 8 0
3 -65 6 -144 7 -88 0 -142 -4 -139 -9z"/>
<path d="M2042 1698 c-1 -21 -10 -53 -19 -73 -14 -29 -15 -37 -3 -48 8 -7 10
-8 7 -1 -4 7 0 29 9 49 8 20 13 53 11 73 l-4 37 -1 -37z"/>
<path d="M3262 1625 c6 -14 13 -24 14 -22 6 6 -9 47 -17 47 -5 0 -3 -11 3 -25z"/>
<path d="M896 2360 c4 -25 10 -53 15 -62 10 -19 -9 -53 -60 -110 -14 -16 -20
-28 -15 -28 12 0 38 28 73 79 22 31 22 37 11 75 -25 84 -30 93 -24 46z"/>
<path d="M861 2302 c0 -12 -17 -39 -37 -58 -47 -48 -61 -84 -38 -101 14 -10
15 -18 5 -57 -6 -25 -11 -57 -11 -73 0 -38 -31 -85 -100 -155 -32 -32 -56 -58
-53 -58 16 0 75 55 105 96 l33 46 10 -59 c13 -68 67 -150 121 -183 19 -12 34
-23 34 -25 0 -1 -19 -1 -42 2 -24 2 -61 0 -83 -5 -35 -9 -29 -10 45 -9 77 1
90 -2 143 -30 31 -17 57 -27 57 -22 0 5 -19 18 -42 30 -72 37 -145 98 -183
154 -33 48 -38 61 -38 117 0 35 6 101 13 147 11 65 11 86 2 89 -23 7 -12 39
29 85 29 33 39 53 36 69 l-4 23 -2 -23z"/>
<path d="M5615 2293 c-22 -8 -76 -19 -120 -23 -95 -10 -85 -8 -85 -21 0 -5 5
-7 12 -3 7 4 46 11 88 15 69 6 210 47 165 48 -11 0 -38 -7 -60 -16z"/>
<path d="M5245 2260 c4 -6 11 -8 16 -5 14 9 11 15 -7 15 -8 0 -12 -5 -9 -10z"/>
<path d="M950 2251 c0 -9 36 -48 117 -123 38 -36 81 -86 92 -106 6 -12 25 -29
41 -39 31 -18 90 -109 90 -138 0 -9 7 -30 16 -46 8 -17 14 -33 11 -35 -2 -2
-25 5 -51 16 -25 12 -51 18 -57 15 -5 -4 -17 -1 -26 7 -13 10 -17 10 -20 1 -4
-10 -10 -10 -24 -2 -11 5 -29 7 -40 4 -15 -5 -32 7 -74 50 -30 31 -55 53 -55
48 0 -4 14 -22 32 -40 32 -33 32 -33 7 -33 -13 0 -44 10 -69 21 -46 21 -140
35 -140 21 0 -8 23 -12 68 -12 13 0 36 -7 52 -15 16 -8 53 -20 82 -26 29 -6
58 -15 63 -19 6 -5 21 -8 35 -9 89 -2 141 -10 183 -31 26 -12 50 -20 53 -17 3
3 -4 24 -15 48 -12 23 -21 51 -21 62 0 10 -8 31 -19 45 -10 15 -21 37 -25 49
-4 12 -22 31 -41 42 -18 11 -41 33 -50 50 -8 17 -21 31 -28 31 -8 0 -23 18
-35 39 -13 22 -31 43 -42 46 -10 3 -40 29 -65 57 -25 27 -45 45 -45 39z"/>
<path d="M5280 2245 c0 -3 18 -16 39 -29 37 -24 40 -30 62 -123 18 -74 32
-108 56 -138 18 -22 38 -51 44 -65 6 -14 24 -53 40 -88 16 -34 29 -69 29 -77
0 -7 5 -17 10 -20 17 -11 1 43 -31 107 -16 31 -29 64 -29 72 0 7 -17 35 -39
61 -27 32 -44 67 -56 113 -35 140 -38 146 -74 163 l-33 16 37 1 c58 2 55 12
-3 12 -29 0 -52 -2 -52 -5z"/>
<path d="M5571 2209 c-6 -18 -11 -46 -11 -63 0 -17 -9 -77 -20 -134 -21 -106
-24 -140 -14 -129 8 7 43 213 44 253 0 17 7 48 15 68 8 20 11 36 6 36 -5 0
-14 -14 -20 -31z"/>
<path d="M1086 2197 c28 -17 86 -56 129 -84 43 -29 82 -53 88 -53 12 0 -120
93 -198 140 -67 40 -83 38 -19 -3z"/>
<path d="M4796 2175 c3 -27 6 -62 7 -77 1 -16 5 -28 10 -28 4 0 9 0 11 0 2 0
-1 19 -6 43 -6 23 -14 58 -19 77 -7 28 -7 25 -3 -15z"/>
<path d="M4843 2145 c0 -44 2 -61 4 -37 2 23 2 59 0 80 -2 20 -4 1 -4 -43z"/>
<path d="M5692 2160 c-3 -52 -36 -220 -43 -220 -4 0 -5 33 -2 73 3 42 2 69 -3
64 -11 -10 -12 -267 -1 -267 4 0 7 27 7 59 0 33 5 61 10 63 13 4 43 188 37
225 -4 27 -4 27 -5 3z"/>
<path d="M4760 2145 c0 -5 9 -21 20 -35 11 -14 20 -20 20 -15 0 6 -9 21 -20
35 -11 14 -20 21 -20 15z"/>
<path d="M5875 2118 c-14 -23 -22 -61 -27 -123 -3 -49 -11 -107 -16 -127 -5
-21 -8 -38 -6 -38 13 0 28 68 34 158 5 67 12 108 22 120 22 25 30 42 21 42 -5
0 -18 -15 -28 -32z"/>
<path d="M820 2137 c0 -2 22 -19 49 -37 45 -31 51 -39 66 -99 10 -36 22 -70
27 -76 11 -11 11 -10 -17 88 -13 49 -23 62 -63 92 -42 31 -62 41 -62 32z"/>
<path d="M1293 2106 c24 -19 55 -40 68 -46 13 -7 43 -30 66 -51 24 -22 50 -39
58 -39 10 0 25 -19 37 -46 16 -37 19 -58 14 -98 -5 -36 -3 -47 4 -36 29 44 -2
167 -48 191 -15 7 -46 29 -68 49 -44 37 -155 110 -168 110 -4 0 12 -15 37 -34z"/>
<path d="M1071 2073 c6 -15 16 -55 24 -88 8 -38 13 -50 14 -32 1 35 -27 134
-40 142 -5 4 -4 -6 2 -22z"/>
<path d="M4408 2054 c-1 -21 -1 -61 0 -89 3 -84 4 -168 2 -215 0 -25 6 -67 15
-95 19 -63 19 -89 0 -105 -13 -10 -15 -9 -15 8 0 12 -4 24 -10 27 -5 3 -10 22
-10 41 0 40 -14 71 -43 95 l-20 16 21 35 c12 20 22 43 22 53 0 10 -11 -4 -25
-31 -31 -60 -31 -59 0 -86 19 -16 25 -31 25 -63 0 -22 6 -47 13 -54 8 -8 12
-48 12 -126 0 -91 -2 -109 -11 -92 -6 12 -15 48 -18 80 -6 44 -16 68 -43 105
-74 96 -108 132 -125 132 -10 0 -35 7 -55 15 -20 8 -38 13 -41 10 -7 -7 88
-46 98 -40 8 5 118 -124 138 -162 7 -12 12 -39 12 -60 0 -22 13 -63 30 -98 16
-33 27 -49 24 -36 -4 16 -3 21 5 16 9 -5 10 1 4 22 -16 55 -7 149 16 179 23
29 27 68 10 111 -6 15 -13 120 -15 232 -2 113 -7 207 -9 210 -3 2 -6 -13 -7
-35z"/>
<path d="M4632 2023 c6 -21 8 -59 6 -85 -3 -26 -1 -48 3 -48 10 0 12 113 3
148 -4 12 -10 22 -14 22 -5 0 -4 -17 2 -37z"/>
<path d="M4810 2020 c0 -5 5 -10 10 -10 6 0 10 5 10 10 0 6 -4 10 -10 10 -5 0
-10 -4 -10 -10z"/>
<path d="M4457 1945 c-4 -40 -3 -84 2 -103 14 -48 62 -142 73 -142 5 0 18 -21
29 -47 11 -25 32 -60 47 -77 15 -17 49 -70 76 -119 27 -48 53 -87 57 -87 5 0
-1 17 -13 38 -12 20 -33 57 -46 82 -14 25 -42 65 -62 90 -20 25 -40 57 -43 72
-4 15 -16 36 -27 46 -48 44 -73 113 -79 217 l-6 100 -8 -70z"/>
<path d="M5952 1948 c-6 -24 -14 -65 -17 -93 -8 -57 -25 -81 -74 -101 -19 -8
-32 -17 -29 -19 8 -8 72 22 91 43 12 13 23 54 32 113 15 101 14 126 -3 57z"/>
<path d="M667 1937 c-10 -19 -28 -45 -40 -58 -22 -24 -97 -123 -111 -146 -4
-7 -4 -13 1 -13 4 0 24 23 43 52 19 28 52 72 73 96 40 47 72 102 60 102 -5 0
-17 -15 -26 -33z"/>
<path d="M1601 1864 c13 -14 40 -32 59 -40 19 -8 46 -26 60 -38 14 -13 41 -27
60 -30 l35 -6 -35 16 c-19 9 -44 24 -55 34 -11 10 -41 28 -68 39 -26 11 -50
27 -53 36 -4 8 -11 15 -17 15 -6 0 0 -12 14 -26z"/>
<path d="M502 1841 c-15 -16 -43 -50 -62 -75 -19 -26 -63 -74 -97 -107 -35
-34 -63 -63 -63 -66 0 -14 104 85 151 143 30 37 69 82 87 100 18 19 28 34 22
34 -6 0 -24 -13 -38 -29z"/>
<path d="M4662 1847 c10 -24 15 -27 45 -21 29 5 33 4 33 -15 0 -28 22 -71 49
-95 13 -12 21 -31 21 -51 0 -18 7 -52 15 -75 16 -46 15 -56 -17 -137 -18 -43
-19 -56 -9 -75 11 -22 11 -22 6 5 -4 18 4 46 21 84 26 53 27 60 16 113 -7 31
-12 68 -12 83 0 15 -13 41 -30 60 -16 19 -35 52 -42 73 -11 34 -17 39 -43 39
-17 0 -37 8 -48 20 -17 20 -17 19 -5 -8z"/>
<path d="M4551 1814 c-20 -25 -27 -44 -16 -44 2 0 11 13 20 29 10 19 24 31 42
34 l28 4 -27 2 c-18 1 -33 -7 -47 -25z"/>
<path d="M3934 1790 c13 -105 17 -113 82 -175 35 -33 64 -57 64 -52 0 4 -27
33 -59 64 -57 53 -60 58 -66 117 -4 33 -11 68 -17 76 -6 10 -7 0 -4 -30z"/>
<path d="M4703 1788 c3 -9 12 -44 18 -76 11 -54 11 -65 -9 -119 -12 -33 -22
-71 -21 -84 1 -21 2 -20 9 6 4 17 15 47 24 67 25 58 15 180 -17 213 -7 7 -8 4
-4 -7z"/>
<path d="M312 1726 c-34 -65 -152 -213 -178 -223 -8 -3 -14 -9 -14 -15 0 -20
61 35 120 108 58 73 129 194 113 194 -5 0 -23 -29 -41 -64z"/>
<path d="M3817 1719 c-4 -29 -16 -52 -41 -78 -19 -20 -40 -49 -45 -64 -14 -37
-14 -107 0 -107 7 0 9 11 6 26 -9 47 14 107 55 145 25 24 38 45 38 62 0 14 3
32 6 41 3 9 2 16 -4 16 -5 0 -12 -19 -15 -41z"/>
<path d="M748 1707 c-44 -40 -85 -103 -74 -114 2 -3 12 10 21 29 9 18 40 54
68 80 29 26 48 47 42 47 -5 1 -31 -18 -57 -42z"/>
<path d="M1090 1742 c0 -19 46 -66 115 -118 86 -63 130 -116 157 -187 l20 -52
-29 26 c-15 15 -39 32 -53 39 -27 14 -216 24 -234 12 -6 -4 -45 -7 -86 -8 -41
0 -95 -6 -119 -14 -28 -8 -49 -10 -60 -4 -9 5 -43 9 -76 9 -74 -1 -235 -26
-235 -36 0 -4 19 -3 43 3 39 9 213 21 247 18 53 -6 112 -1 125 10 11 9 35 10
89 5 41 -3 76 -3 79 2 5 8 96 10 193 4 12 0 41 -19 66 -41 25 -21 48 -37 52
-35 3 3 4 2 1 -1 -8 -12 77 -164 119 -212 37 -42 96 -138 96 -156 0 -4 -6 -4
-12 1 -20 12 -82 33 -86 28 -3 -2 6 -8 19 -13 90 -36 131 -63 203 -137 160
-167 199 -204 207 -200 4 3 11 -4 14 -16 5 -14 10 -18 17 -11 6 6 19 1 35 -14
15 -13 29 -22 32 -19 2 3 -9 19 -27 35 -20 18 -34 25 -38 18 -5 -7 -11 -3 -16
11 -4 12 -11 20 -16 17 -8 -5 -93 76 -202 192 -38 41 -77 75 -86 76 -10 2 -21
9 -24 17 -31 66 -77 150 -85 153 -25 9 -105 148 -138 238 -46 126 -82 177
-171 243 -40 29 -86 69 -104 89 -18 20 -32 33 -32 28z"/>
<path d="M617 1691 c-19 -22 -38 -37 -41 -34 -12 12 -101 -22 -142 -53 -24
-19 -55 -36 -69 -40 -14 -3 -27 -10 -30 -14 -3 -5 8 -5 24 0 37 10 50 17 77
42 21 19 133 62 140 55 3 -2 0 -17 -6 -32 -16 -43 -3 -42 15 1 9 22 32 56 53
77 20 20 31 37 25 37 -6 0 -27 -18 -46 -39z"/>
<path d="M1473 1683 c27 -27 80 -82 118 -123 38 -41 69 -70 69 -64 0 6 -29 39
-65 75 -36 35 -65 69 -65 75 0 12 -83 84 -96 84 -5 0 13 -21 39 -47z"/>
<path d="M1321 1674 c18 -20 60 -47 91 -61 54 -24 59 -29 110 -119 48 -87 108
-162 108 -138 0 6 -12 21 -26 35 -14 13 -46 63 -72 112 -45 85 -49 89 -110
118 -35 17 -75 44 -89 60 -15 16 -31 29 -37 29 -5 0 6 -16 25 -36z"/>
<path d="M5085 1675 c4 -22 11 -53 15 -70 5 -16 14 -56 20 -87 6 -32 16 -61
22 -64 8 -5 9 -1 4 11 -4 10 -16 66 -28 124 -11 58 -25 111 -30 116 -6 6 -7
-5 -3 -30z"/>
<path d="M414 1659 c-16 -17 -72 -65 -124 -107 -121 -97 -116 -92 -104 -92 12
0 210 158 248 199 17 17 25 31 20 31 -6 0 -23 -14 -40 -31z"/>
<path d="M5830 1635 c-19 -7 -48 -16 -65 -20 -17 -4 -24 -10 -16 -12 16 -6
121 28 121 39 0 10 3 10 -40 -7z"/>
<path d="M5447 1589 c-4 -13 -6 -33 -6 -44 1 -13 4 -10 9 10 7 28 8 26 9 -15
1 -32 4 -41 10 -30 10 14 5 63 -9 89 -5 9 -9 7 -13 -10z"/>
<path d="M5877 1583 c-4 -3 -7 -14 -7 -23 0 -8 -9 -33 -20 -55 -20 -39 -21
-57 -3 -33 14 18 46 108 41 114 -3 2 -8 1 -11 -3z"/>
<path d="M610 1556 c-47 -25 -155 -59 -225 -72 -22 -4 -33 -9 -24 -11 41 -10
309 76 309 100 0 11 -11 8 -60 -17z"/>
<path d="M960 1570 c-7 -4 -30 -5 -51 -3 -27 4 -47 0 -65 -12 -23 -15 -33 -15
-91 -5 -35 7 -66 10 -69 7 -3 -3 27 -11 66 -18 62 -11 75 -10 98 3 19 10 54
14 124 14 57 -1 91 2 82 7 -8 5 -20 6 -27 4 -7 -2 -21 -1 -33 4 -11 4 -26 4
-34 -1z"/>
<path d="M3940 1558 c0 -7 7 -40 14 -73 12 -51 12 -65 0 -100 -7 -22 -13 -58
-13 -80 l2 -40 7 45 c4 25 13 60 20 78 11 28 10 46 -5 108 -16 69 -25 91 -25
62z"/>
<path d="M1650 1559 c-1 -18 150 -233 158 -225 2 3 -11 25 -30 48 -19 24 -46
63 -60 88 -28 48 -67 100 -68 89z"/>
<path d="M5016 1487 c3 -36 1 -63 -6 -71 -7 -10 -8 -36 -2 -87 5 -41 9 -75 8
-76 -1 -1 -28 2 -61 6 -49 7 -69 5 -108 -10 -58 -23 -110 -24 -189 -4 -33 9
-69 13 -81 9 -27 -9 -47 -13 -116 -20 -43 -5 -61 -2 -90 14 -42 24 -116 31
-147 14 -12 -6 -39 -8 -65 -5 -24 3 -64 5 -89 4 -25 -2 -63 -3 -85 -2 -132 3
-195 1 -235 -8 -42 -9 -40 -9 25 -6 39 2 80 7 92 11 12 3 37 1 55 -5 41 -13
85 -15 118 -6 14 4 39 7 55 5 17 -1 55 -2 85 -1 30 0 79 1 108 2 32 0 63 -6
77 -15 12 -8 33 -16 46 -18 32 -4 149 11 169 22 9 5 38 2 70 -6 72 -19 163
-18 202 2 41 21 141 12 272 -25 73 -20 86 -31 86 -72 0 -26 37 -85 47 -75 3 3
-4 17 -16 32 -11 15 -21 39 -21 55 0 35 -41 69 -84 69 -30 0 -93 31 -109 54
-4 6 -5 20 -2 32 2 11 0 35 -5 53 -7 24 -6 39 5 54 12 19 12 30 0 77 l-14 55
5 -58z"/>
<path d="M1165 1521 c17 -4 50 -17 74 -29 25 -12 46 -20 49 -18 9 9 -98 56
-125 55 l-28 -1 30 -7z"/>
<path d="M4060 1492 c0 -16 9 -37 20 -47 11 -10 20 -25 20 -34 0 -9 7 -29 16
-46 9 -16 20 -46 24 -65 l8 -35 1 35 c0 19 -6 44 -14 54 -8 11 -15 28 -15 38
0 10 -11 36 -25 57 -15 22 -23 45 -19 54 3 10 1 17 -5 17 -6 0 -11 -13 -11
-28z"/>
<path d="M5435 1460 c10 -75 23 -121 39 -139 22 -24 20 -58 -4 -66 -21 -7 -26
-34 -11 -63 6 -9 12 -29 15 -43 3 -15 22 -48 41 -75 19 -27 51 -74 71 -104 36
-54 182 -205 190 -197 3 3 -25 33 -62 68 -37 35 -83 89 -102 119 -20 30 -53
77 -74 103 -20 27 -42 67 -49 89 -6 22 -16 49 -22 59 -10 16 -8 21 11 34 28
20 29 65 2 90 -11 10 -20 32 -21 49 0 17 -7 49 -15 71 l-14 40 5 -35z"/>
<path d="M5496 1472 c11 -9 28 -30 38 -45 10 -16 30 -33 45 -38 29 -10 51 -45
51 -79 0 -10 5 -22 11 -26 8 -4 9 4 4 27 -9 46 -31 78 -60 89 -13 5 -35 25
-47 44 -13 19 -32 37 -43 40 -20 5 -20 5 1 -12z"/>
<path d="M180 1428 c-41 -10 -79 -24 -85 -30 -7 -7 -5 -9 5 -5 8 3 50 13 93
23 42 10 77 21 77 26 0 10 3 10 -90 -14z"/>
<path d="M1216 1418 c10 -12 25 -28 31 -36 10 -10 10 -17 1 -32 -7 -10 -15
-17 -19 -14 -5 2 -12 -3 -17 -13 -11 -23 25 -143 43 -143 7 0 28 -18 46 -41
20 -26 54 -51 94 -70 76 -35 96 -38 36 -4 -23 14 -49 25 -56 25 -8 0 -33 22
-57 50 -24 27 -48 50 -55 50 -7 0 -19 23 -28 52 -19 65 -19 78 0 78 9 0 20 11
26 24 10 21 7 29 -17 60 -16 20 -33 36 -38 36 -5 0 -1 -10 10 -22z"/>
<path d="M3735 1397 c2 -30 -4 -54 -22 -84 -21 -37 -31 -45 -81 -59 -31 -9
-63 -19 -71 -22 -11 -4 -11 -1 -2 16 13 25 14 32 2 32 -5 0 -12 -14 -16 -31
-5 -24 -11 -30 -26 -26 -18 5 -100 -21 -115 -36 -4 -4 -18 -7 -31 -7 -45 0
-133 -99 -133 -149 0 -12 -17 -40 -37 -63 -32 -34 -34 -39 -11 -24 31 20 58
58 58 81 0 22 34 87 56 106 11 9 46 26 79 38 33 13 68 27 78 32 9 5 36 11 60
14 23 2 72 13 109 25 59 18 69 25 92 64 26 45 36 119 17 130 -5 3 -8 -13 -6
-37z"/>
<path d="M5161 1430 c0 -8 -27 -38 -58 -67 -32 -29 -53 -53 -48 -52 6 0 34 22
63 49 38 33 52 54 49 67 -3 11 -5 12 -6 3z"/>
<path d="M5951 1404 c-12 -15 -21 -31 -21 -35 0 -5 -9 -18 -20 -29 -15 -15
-17 -20 -5 -20 8 0 24 18 35 39 11 22 30 47 42 55 17 13 19 16 6 16 -9 0 -26
-12 -37 -26z"/>
<path d="M1435 1389 c17 -11 46 -28 65 -39 19 -10 52 -34 74 -54 21 -20 43
-36 49 -36 17 0 -84 84 -142 117 -62 36 -93 44 -46 12z"/>
<path d="M300 1390 c-79 -6 -224 -50 -256 -76 -19 -15 -18 -15 1 -8 142 52
180 62 250 68 43 3 84 11 89 16 6 6 6 9 1 8 -6 0 -44 -4 -85 -8z"/>
<path d="M409 1367 c-37 -33 -95 -117 -81 -117 4 0 16 15 26 33 10 17 39 51
64 74 26 24 43 42 37 42 -5 0 -26 -14 -46 -32z"/>
<path d="M5380 1381 c0 -5 5 -13 10 -16 6 -3 10 -2 10 4 0 5 -4 13 -10 16 -5
3 -10 2 -10 -4z"/>
<path d="M3573 1358 c-14 -18 -22 -68 -12 -68 5 0 9 9 9 21 0 11 5 29 10 40
12 21 8 25 -7 7z"/>
<path d="M4536 1350 c-15 -5 -36 -16 -45 -24 -10 -9 -20 -15 -22 -14 -2 2 -1
-1 3 -6 3 -5 19 1 34 13 17 13 42 21 68 22 32 0 37 2 21 9 -24 10 -23 10 -59
0z"/>
<path d="M5785 1350 c7 -11 72 -33 86 -28 6 2 -12 11 -40 20 -28 9 -49 12 -46
8z"/>
<path d="M4655 1340 c26 -11 62 -12 69 -2 2 4 -17 8 -42 9 -34 1 -41 -1 -27
-7z"/>
<path d="M1846 1332 c-6 -10 17 -13 149 -15 61 -2 122 -8 136 -14 14 -6 100
-25 192 -42 154 -29 173 -31 252 -21 46 6 95 15 107 20 19 9 17 9 -12 5 -113
-16 -228 -16 -300 0 -41 9 -100 20 -130 25 -30 5 -79 17 -109 27 -45 16 -64
18 -118 10 -45 -7 -77 -6 -103 2 -44 13 -57 14 -64 3z"/>
<path d="M1662 1315 c15 -8 51 -20 80 -25 29 -6 73 -21 98 -34 101 -53 193
-69 460 -82 69 -3 139 -10 155 -15 22 -6 52 -3 110 11 44 11 100 20 123 20 24
0 67 6 95 14 29 8 113 22 186 31 74 8 137 18 140 21 8 8 -134 -5 -244 -23 -49
-7 -121 -18 -160 -23 -38 -5 -104 -18 -145 -28 -49 -12 -83 -16 -98 -11 -12 5
-73 11 -135 15 -61 3 -130 7 -152 10 -22 2 -78 8 -125 13 -85 9 -156 29 -196
56 -12 8 -57 24 -101 35 -118 33 -121 33 -91 15z"/>
<path d="M3045 1310 c-49 -10 -137 -24 -195 -30 -58 -6 -109 -16 -115 -21 -7
-7 -2 -9 15 -5 36 7 114 17 179 22 73 6 203 33 216 45 11 11 10 11 -100 -11z"/>
<path d="M3335 1284 c-5 -2 -46 -10 -90 -18 -44 -8 -66 -15 -49 -15 18 -1 69
6 115 15 46 9 99 13 117 10 19 -3 30 -1 27 5 -6 9 -100 12 -120 3z"/>
<path d="M5585 1271 c6 -6 33 -15 60 -20 40 -8 53 -6 67 6 12 10 26 13 49 8
22 -5 29 -4 25 4 -9 14 -73 14 -82 0 -6 -11 -44 -8 -104 7 -18 5 -22 4 -15 -5z"/>
<path d="M0 1257 c0 -18 34 -96 40 -92 5 3 11 -4 15 -15 7 -23 33 -27 41 -5 4
8 10 13 14 10 5 -3 11 -1 15 5 12 19 23 10 29 -25 8 -43 26 -46 26 -5 0 47 18
35 25 -17 13 -94 29 -111 40 -43 4 22 14 47 22 56 15 14 17 13 29 -14 12 -29
26 -35 51 -19 8 5 14 -7 18 -38 7 -46 18 -57 29 -29 8 22 8 26 -4 19 -5 -3
-10 1 -10 9 0 8 -5 27 -10 42 -8 20 -14 24 -22 16 -8 -8 -15 -7 -24 6 -11 14
-14 14 -15 2 0 -8 -4 -4 -8 9 -14 53 -54 28 -66 -41 -8 -49 -11 -45 -20 35 -7
61 -28 77 -45 35 -8 -22 -9 -22 -9 -2 -1 28 -10 35 -32 23 -16 -8 -19 -6 -19
16 0 14 -4 25 -10 25 -5 0 -10 -16 -10 -35 0 -33 -17 -49 -24 -22 -15 48 -17
51 -25 38 -6 -10 -11 -5 -16 18 -3 17 -11 33 -16 36 -5 4 -9 4 -9 2z"/>
<path d="M887 1224 c-23 -54 -34 -66 -100 -108 -32 -21 -62 -47 -67 -60 -4
-12 -31 -42 -59 -65 -28 -24 -51 -48 -51 -54 0 -8 3 -8 8 -2 4 6 28 27 53 47
25 20 52 50 58 66 7 17 30 39 54 52 23 13 53 32 65 44 28 25 65 93 59 109 -2
6 -11 -7 -20 -29z"/>
<path d="M1676 1232 c5 -4 26 -21 48 -36 47 -35 91 -103 100 -155 3 -21 21
-61 40 -87 20 -27 58 -95 86 -151 28 -57 56 -103 60 -103 5 0 6 8 3 17 -6 16
-5 16 17 0 14 -9 36 -17 51 -17 15 0 53 -14 85 -30 51 -27 61 -30 86 -19 22 9
35 9 55 0 17 -8 49 -10 95 -5 57 6 74 11 94 33 13 14 24 32 24 40 0 26 -47 77
-94 101 -57 31 -99 101 -90 149 4 17 11 34 15 37 5 3 9 10 9 16 0 24 -30 -16
-36 -48 -10 -52 38 -137 89 -160 36 -16 97 -77 97 -97 0 -15 -53 -58 -66 -53
-7 3 -29 0 -50 -5 -29 -9 -46 -7 -81 6 -41 16 -45 16 -63 0 -17 -15 -21 -14
-72 14 -30 17 -67 31 -82 31 -15 0 -40 7 -56 15 -17 9 -30 12 -30 8 -1 -13
-56 80 -67 113 -6 17 -31 61 -57 98 -27 39 -49 84 -52 108 -9 52 -58 125 -109
160 -37 25 -73 40 -49 20z"/>
<path d="M5340 1210 c36 -3 71 -10 78 -14 7 -4 12 -3 12 2 0 13 -52 22 -109
21 -41 -2 -38 -3 19 -9z"/>
<path d="M5554 1202 c0 -11 4 -18 8 -16 10 6 57 -46 58 -63 0 -15 20 -18 20
-4 0 5 -19 30 -43 56 -35 39 -43 44 -43 27z"/>
<path d="M1995 1169 c-3 -4 14 -13 37 -19 24 -6 61 -16 82 -21 21 -6 55 -19
75 -30 20 -10 43 -19 51 -19 8 0 32 -9 53 -20 46 -25 60 -26 27 -2 -26 18
-112 53 -190 78 -25 8 -64 21 -88 28 -23 8 -45 10 -47 5z"/>
<path d="M2335 1133 c-22 -7 -57 -13 -77 -11 -20 1 -41 -2 -45 -6 -4 -5 26 -6
67 -2 41 4 112 7 158 7 51 0 82 4 82 11 0 6 7 5 17 -3 9 -8 26 -14 38 -14 45
0 115 -84 115 -138 0 -14 12 -50 26 -81 18 -40 25 -68 21 -94 -4 -36 29 -169
40 -159 3 3 -2 27 -11 53 -9 26 -16 74 -16 106 0 43 -7 72 -26 109 -14 28 -23
57 -20 64 7 20 -36 99 -74 132 -27 24 -40 29 -57 22 -15 -6 -23 -3 -27 8 -4
10 -12 13 -24 8 -26 -11 -82 -13 -88 -3 -3 4 -13 4 -23 -2 -10 -5 -22 -5 -27
-1 -5 5 -27 2 -49 -6z"/>
<path d="M3612 1130 c-16 -27 -15 -33 4 -26 15 6 16 0 11 -39 -4 -25 -3 -45 2
-45 14 0 29 -45 24 -72 -6 -32 14 -46 31 -23 11 16 14 14 29 -18 9 -19 17 -41
17 -49 1 -7 7 -24 15 -38 10 -18 14 -20 15 -8 0 9 -4 20 -10 23 -5 3 -10 17
-10 30 0 29 -31 85 -47 85 -7 0 -13 -4 -13 -10 0 -5 -4 -10 -9 -10 -4 0 -6 11
-4 24 3 13 -3 40 -12 60 -11 23 -15 47 -11 67 4 21 1 31 -9 35 -7 3 -11 12 -8
20 8 20 0 17 -15 -6z"/>
<path d="M4744 1027 c26 -103 40 -137 82 -203 28 -43 63 -100 79 -126 15 -27
31 -51 37 -54 11 -7 -38 81 -107 192 -40 65 -56 103 -80 197 -16 64 -32 117
-36 117 -4 0 7 -55 25 -123z"/>
<path d="M3479 1117 c-22 -17 -39 -51 -39 -80 0 -14 -7 -30 -15 -37 -8 -7 -22
-38 -32 -69 -9 -31 -23 -61 -31 -68 -8 -6 -24 -34 -37 -61 -22 -48 -66 -90
-152 -145 -24 -15 -43 -32 -43 -37 0 -14 139 86 172 124 15 17 32 45 38 62 6
17 30 45 55 64 25 19 45 38 45 43 0 6 -8 3 -18 -6 -10 -10 -21 -17 -25 -17 -9
0 19 76 38 103 8 12 15 31 15 43 0 12 11 38 25 58 13 20 23 36 22 36 -1 0 -9
-6 -18 -13z"/>
<path d="M2665 1103 c11 -7 21 -9 25 -4 3 6 11 6 19 1 8 -4 20 -6 28 -3 8 3
13 -2 13 -13 0 -16 2 -16 10 -4 5 9 22 13 44 12 21 -2 36 2 36 8 0 7 -15 9
-40 7 -22 -2 -42 -1 -46 2 -3 3 -28 6 -56 7 -45 1 -49 -1 -33 -13z"/>
<path d="M3158 1094 c-35 -15 -79 -25 -115 -25 -32 -1 -68 -5 -80 -10 -14 -5
-23 -5 -23 1 0 15 -24 12 -46 -6 -18 -14 -18 -15 5 -4 15 8 26 9 30 2 16 -26
276 25 296 59 8 13 -2 10 -67 -17z"/>
<path d="M4360 1116 c0 -19 82 -202 98 -220 11 -11 34 -50 52 -85 25 -49 61
-92 158 -188 69 -67 127 -121 129 -119 2 2 -52 59 -120 128 -83 83 -133 141
-152 178 -15 29 -42 75 -60 101 -18 26 -45 82 -60 124 -23 63 -45 102 -45 81z"/>
<path d="M1960 1103 c0 -24 96 -150 107 -140 3 4 -13 27 -36 53 -23 26 -44 58
-47 71 -6 21 -24 33 -24 16z"/>
<path d="M2135 1076 c9 -13 23 -27 31 -30 7 -3 23 -20 34 -38 11 -18 20 -26
20 -17 0 13 -84 109 -96 109 -2 0 3 -11 11 -24z"/>
<path d="M4170 1095 c0 -3 13 -33 29 -68 27 -60 122 -183 178 -232 15 -12 43
-53 63 -91 29 -56 50 -80 115 -132 44 -35 91 -73 103 -84 13 -11 26 -17 29
-15 2 3 -14 20 -37 38 -159 129 -172 142 -203 206 -17 36 -44 75 -60 86 -46
34 -147 166 -179 235 -27 55 -38 72 -38 57z"/>
<path d="M5740 1075 l-65 -22 -22 20 c-13 11 -23 16 -23 10 0 -5 9 -18 19 -27
16 -15 26 -16 53 -8 85 27 124 37 131 34 4 -1 7 3 7 8 0 14 -26 11 -100 -15z"/>
<path d="M407 1083 c-4 -6 1 -28 9 -50 13 -32 20 -39 35 -36 10 3 19 9 19 14
0 9 -12 12 -27 7 -4 -2 -12 15 -18 36 -6 22 -14 35 -18 29z"/>
<path d="M4000 1046 c0 -8 17 -38 37 -67 29 -43 38 -67 44 -119 4 -36 11 -86
14 -112 9 -56 -19 -139 -66 -200 -31 -40 -53 -88 -41 -88 4 0 13 12 20 28 6
15 24 45 40 67 15 22 39 67 52 99 21 54 22 63 10 105 -7 25 -13 72 -15 104 -1
42 -8 65 -24 85 -12 15 -31 46 -42 70 -21 44 -29 52 -29 28z"/>
<path d="M470 1038 c0 -9 4 -19 9 -22 4 -3 11 -20 15 -37 5 -28 7 -29 22 -15
8 9 12 21 8 27 -4 8 -9 7 -15 -2 -7 -11 -9 -9 -9 7 0 11 -7 29 -15 40 -13 17
-14 17 -15 2z"/>
<path d="M5334 986 c33 -35 72 -69 84 -75 13 -7 -10 21 -51 63 -41 42 -80 76
-85 76 -5 0 18 -29 52 -64z"/>
<path d="M4905 983 c9 -21 26 -54 39 -73 13 -19 37 -66 54 -105 17 -38 47 -87
67 -110 19 -22 54 -64 76 -92 22 -29 44 -53 50 -53 10 0 -4 18 -106 139 -22
26 -71 111 -110 189 -38 77 -73 141 -78 141 -4 1 0 -16 8 -36z"/>
<path d="M3127 963 c-16 -8 -49 -16 -74 -18 -25 -1 -52 -9 -60 -18 -20 -20
-66 -132 -48 -117 8 7 19 28 26 48 16 50 37 72 68 72 47 0 133 31 121 44 -3 2
-18 -2 -33 -11z"/>
<path d="M537 963 c-13 -12 -7 -35 7 -30 8 3 16 -2 19 -14 3 -13 11 -17 21
-13 11 4 16 1 16 -10 0 -9 6 -16 13 -16 19 0 49 39 44 58 -3 13 -6 11 -15 -10
-16 -40 -29 -41 -42 -5 -12 32 -12 32 -20 7 -6 -25 -7 -24 -14 8 -7 31 -16 39
-29 25z"/>
<path d="M2220 963 c0 -22 39 -88 70 -118 17 -16 30 -24 30 -19 0 6 -12 21
-26 35 -14 13 -37 44 -50 69 -12 25 -23 40 -24 33z"/>
<path d="M2494 938 c58 -135 108 -226 131 -238 14 -7 25 -19 25 -26 0 -16 49
-74 62 -74 6 0 -4 16 -21 35 -17 20 -31 41 -31 48 0 7 -16 22 -35 35 -19 12
-35 29 -35 37 0 8 -20 54 -45 103 -25 49 -45 94 -45 100 0 7 -5 12 -10 12 -6
0 -5 -13 4 -32z"/>
<path d="M666 914 c-9 -22 -7 -34 3 -34 5 0 12 8 14 18 3 11 5 7 6 -10 1 -36
11 -59 22 -53 5 3 11 -6 15 -20 7 -30 24 -33 24 -4 0 11 -4 17 -10 14 -5 -3
-10 1 -10 9 0 9 -4 16 -10 16 -5 0 -14 18 -20 40 -11 42 -24 51 -34 24z"/>
<path d="M2080 929 c-1 -16 30 -76 48 -92 10 -9 25 -42 32 -72 7 -30 17 -55
21 -55 15 0 -23 116 -47 141 -13 14 -24 30 -24 35 0 11 -29 53 -30 43z"/>
<path d="M5485 916 c28 -6 74 -23 103 -37 28 -14 52 -23 52 -19 0 16 -132 70
-168 69 -36 -1 -36 -1 13 -13z"/>
<path d="M3123 847 c-12 -18 -33 -53 -47 -79 -15 -27 -44 -60 -70 -78 -43 -29
-77 -64 -44 -44 54 33 100 75 119 109 12 22 32 54 44 70 31 42 37 55 28 55 -4
-1 -18 -15 -30 -33z"/>
<path d="M750 850 c0 -16 33 -80 42 -80 4 0 8 8 9 18 0 12 3 10 10 -8 18 -45
49 -53 49 -13 0 34 10 24 19 -19 4 -18 12 -33 18 -33 6 0 15 -3 19 -7 4 -5 15
-8 25 -8 9 0 20 -7 23 -16 9 -22 26 -7 27 24 1 26 1 25 10 -6 6 -18 15 -32 21
-30 18 6 21 28 5 28 -9 0 -18 13 -22 30 -9 42 -25 37 -25 -7 0 -27 -3 -34 -9
-24 -5 8 -17 16 -27 17 -9 2 -20 8 -24 15 -4 6 -12 9 -18 5 -5 -3 -12 12 -16
34 -8 50 -24 60 -32 21 -5 -25 -9 -29 -20 -20 -8 6 -14 20 -14 30 0 21 -11 24
-27 8 -7 -7 -14 -2 -21 20 -11 30 -22 41 -22 21z"/>
<path d="M326 830 c-10 -40 -25 -164 -21 -168 4 -4 5 0 25 105 12 60 9 113 -4
63z"/>
<path d="M359 793 c-1 -48 -3 -53 -9 -28 -8 30 -8 30 -9 3 0 -14 2 -34 5 -43
10 -25 23 2 25 50 1 44 2 42 19 -65 7 -41 17 -82 22 -90 7 -11 8 -9 5 10 -3
14 -13 69 -22 123 -10 53 -21 97 -26 97 -5 0 -10 -26 -10 -57z"/>
<path d="M5300 846 c0 -5 10 -23 23 -40 35 -47 85 -140 108 -201 16 -42 37
-69 96 -125 75 -70 113 -98 113 -83 0 4 -15 18 -33 30 -62 43 -145 133 -158
171 -23 73 -149 282 -149 248z"/>
<path d="M20 800 c-6 -11 -13 -50 -15 -88 l-4 -67 10 63 c13 75 22 73 26 -5 1
-42 8 -62 24 -79 12 -13 17 -24 11 -24 -20 0 -13 -20 10 -29 l23 -8 -23 -7
c-12 -4 -20 -11 -17 -16 3 -5 -1 -10 -7 -13 -10 -3 -8 -9 5 -24 9 -11 14 -23
11 -26 -4 -4 1 -9 10 -13 22 -8 20 -21 -4 -27 -11 -3 -20 -10 -20 -15 0 -12
47 -25 63 -17 15 8 -15 -16 -40 -31 -22 -14 -10 -28 30 -38 19 -4 26 -3 22 4
-3 5 -15 10 -26 10 -28 0 -23 12 11 32 40 23 38 38 -6 38 l-36 0 23 19 c21 17
22 20 7 26 -9 4 -14 13 -12 20 3 8 -4 16 -16 20 -21 7 -21 8 9 34 38 34 39 41
4 41 -25 1 -26 2 -10 11 18 10 18 12 -5 36 -16 17 -23 37 -23 66 -1 23 -7 53
-14 66 -7 12 -11 32 -8 42 7 25 1 24 -13 -1z"/>
<path d="M3733 732 c-12 -31 -21 -58 -19 -60 6 -6 47 90 44 103 -2 8 -13 -12
-25 -43z"/>
<path d="M206 714 c-4 -33 -10 -67 -13 -78 -3 -12 -1 -16 6 -12 6 4 11 26 12
49 1 40 1 41 9 12 5 -16 12 -48 17 -69 4 -22 15 -42 23 -44 13 -4 13 -3 2 11
-8 9 -18 49 -24 89 -14 100 -24 114 -32 42z"/>
<path d="M2330 734 c5 -20 16 -44 24 -53 20 -19 20 -3 1 23 -8 11 -15 28 -15
37 0 10 -4 20 -9 23 -5 4 -5 -9 -1 -30z"/>
<path d="M1050 703 c0 -6 -3 -18 -6 -27 -3 -9 -1 -16 6 -16 6 0 8 6 5 13 -4 6
0 3 9 -7 14 -17 16 -18 22 -2 6 15 7 15 20 -1 17 -23 18 -2 1 22 -10 13 -16
15 -21 6 -6 -9 -12 -7 -22 6 -7 10 -14 13 -14 6z"/>
<path d="M478 664 c-2 -19 0 -37 4 -40 4 -3 9 5 9 18 1 20 2 21 6 3 3 -11 9
-24 13 -29 5 -5 4 9 -1 30 -4 22 -9 42 -9 47 0 4 -4 7 -9 7 -5 0 -11 -16 -13
-36z"/>
<path d="M1120 688 c1 -7 7 -24 14 -37 12 -22 14 -23 23 -6 9 15 11 12 17 -19
4 -20 11 -34 16 -31 5 3 10 -5 12 -17 2 -13 7 -21 12 -20 5 2 13 -3 18 -12 5
-9 13 -14 19 -11 5 4 9 -3 9 -15 0 -28 23 -21 30 10 5 21 7 18 20 -21 7 -24
13 -48 12 -52 -2 -5 2 -6 8 -2 5 3 10 16 10 27 0 21 0 22 18 2 10 -10 21 -28
25 -38 7 -18 9 -18 22 8 18 33 19 46 5 46 -5 0 -10 -7 -10 -15 0 -8 -3 -15 -6
-15 -10 0 -34 28 -34 39 0 16 -11 13 -25 -6 -11 -15 -14 -11 -20 25 -7 46 -21
54 -34 20 -7 -19 -8 -19 -14 -4 -4 10 -11 15 -16 12 -5 -3 -12 1 -15 10 -3 8
-10 12 -16 9 -5 -3 -10 3 -10 14 0 12 -4 21 -10 21 -5 0 -14 18 -20 40 -11 42
-25 52 -33 23 -4 -14 -5 -12 -6 5 -1 22 -21 32 -21 10z"/>
<path d="M667 573 c-10 -54 -17 -105 -16 -113 1 -24 28 91 30 130 1 35 2 34
11 -10 5 -25 12 -56 14 -69 7 -31 13 -23 23 30 8 43 8 43 15 14 18 -76 40
-147 44 -136 2 6 -3 32 -11 58 -9 27 -19 67 -22 91 -4 23 -11 42 -15 42 -5 0
-13 -19 -18 -42 l-8 -43 -7 60 c-12 97 -22 94 -40 -12z"/>
<path d="M2035 640 c4 -14 12 -29 17 -35 7 -7 8 -2 3 15 -4 14 -12 30 -17 35
-7 7 -8 2 -3 -15z"/>
<path d="M2060 635 c0 -17 31 -56 40 -50 5 3 11 -4 15 -15 3 -11 9 -19 13 -18
12 4 56 -24 74 -46 10 -12 18 -16 18 -8 0 18 -48 64 -60 57 -6 -3 -10 -1 -10
4 0 6 -6 11 -14 11 -7 0 -16 9 -19 20 -3 11 -10 19 -15 18 -6 -2 -18 6 -26 17
-8 11 -16 15 -16 10z"/>
<path d="M2731 592 c-19 -36 -12 -58 28 -90 56 -45 65 -39 12 8 -42 37 -44 40
-33 66 15 31 8 45 -7 16z"/>
<path d="M4910 589 c0 -5 51 -60 114 -122 62 -61 127 -132 144 -157 36 -53
122 -139 122 -122 0 6 -11 19 -24 27 -13 9 -43 44 -67 78 -45 62 -289 313
-289 296z"/>
<path d="M5755 580 c6 -10 69 -52 185 -123 46 -28 59 -33 45 -17 -11 12 -37
31 -58 42 -21 10 -68 39 -103 64 -67 45 -80 52 -69 34z"/>
<path d="M530 553 c0 -15 -5 -44 -10 -63 -6 -19 -13 -50 -15 -67 -3 -18 -10
-54 -16 -80 -6 -27 -11 -64 -11 -83 2 -48 -11 -16 -28 73 -8 37 -17 67 -20 67
-4 0 -13 -35 -20 -77 -9 -58 -14 -73 -22 -60 -5 10 -6 22 -3 27 3 5 1 18 -4
29 -8 14 -8 21 2 24 9 3 9 7 -1 20 -8 9 -11 21 -8 26 4 5 2 12 -4 16 -6 4 -8
10 -5 15 3 5 1 11 -4 14 -5 3 -12 29 -16 56 -4 27 -11 52 -15 55 -12 7 -28
-49 -36 -128 -9 -93 -22 -93 -18 1 5 114 -13 36 -22 -98 -5 -80 -9 -99 -16
-80 -5 14 -8 40 -6 58 5 44 -27 214 -35 187 -18 -60 -27 -107 -29 -144 -1 -29
-5 -38 -12 -31 -5 5 -19 10 -31 9 -16 0 -14 -3 8 -11 21 -7 27 -15 22 -27 -4
-9 -8 -28 -9 -43 -1 -15 -10 -35 -19 -45 -10 -12 -14 -27 -10 -41 3 -14 -4
-40 -18 -68 -16 -30 -21 -47 -13 -52 6 -4 14 -14 17 -22 4 -10 6 -8 6 8 1 12
-4 22 -9 22 -6 0 0 20 14 45 13 25 22 55 19 65 -3 11 2 32 12 46 9 15 19 38
21 53 2 14 6 42 9 61 3 19 8 55 11 79 8 66 23 37 30 -60 4 -46 15 -103 25
-126 10 -24 14 -43 8 -43 -11 0 -12 -33 -2 -44 11 -11 10 -30 -1 -38 -7 -4 -2
-16 10 -30 12 -13 20 -30 17 -38 -2 -8 1 -6 8 4 10 16 8 22 -10 37 -14 12 -17
19 -9 22 10 3 11 11 1 37 -10 26 -10 36 -1 41 8 5 9 15 2 31 -5 13 -6 52 -3
88 6 68 10 59 11 -25 l1 -50 4 48 c2 26 8 47 14 47 6 0 5 8 -2 21 -8 15 -8 24
0 32 6 6 11 25 11 42 0 18 3 35 8 39 4 4 8 20 8 34 1 15 3 36 4 47 2 24 30
-69 32 -108 0 -15 5 -30 9 -33 5 -2 6 -11 3 -19 -3 -7 -1 -22 5 -33 8 -15 8
-21 -1 -24 -7 -3 -6 -12 6 -29 9 -14 13 -28 10 -32 -4 -3 -8 -23 -9 -43 -1
-22 -9 -42 -20 -50 -10 -8 -17 -15 -14 -17 2 -1 30 -22 62 -46 32 -23 61 -41
64 -38 2 3 -18 22 -46 43 -52 39 -56 54 -30 106 5 9 6 23 3 31 -3 8 -1 18 5
21 6 4 13 29 17 56 4 28 10 50 14 50 3 0 12 -28 18 -61 17 -92 30 -94 43 -6 4
28 11 66 14 82 4 17 8 39 9 50 5 32 27 107 31 103 5 -4 14 -47 32 -153 5 -28
14 -59 21 -70 11 -19 11 -19 13 5 2 14 3 34 4 45 1 11 3 38 5 60 l2 40 18 -55
c10 -30 21 -83 25 -117 7 -69 28 -108 45 -83 5 8 12 35 15 60 4 25 10 54 15
65 5 11 11 34 13 50 3 21 4 17 6 -15 0 -25 8 -72 16 -103 8 -32 15 -69 15 -82
0 -65 47 4 56 82 3 26 7 64 9 83 7 58 15 113 24 150 l7 35 14 -40 c7 -22 14
-63 14 -92 1 -28 5 -55 10 -60 5 -4 7 -1 4 7 -3 8 -2 24 2 35 4 11 -1 50 -12
89 -28 102 -34 108 -47 50 -7 -27 -13 -60 -15 -74 -1 -14 -5 -30 -8 -36 -4 -5
-5 -23 -4 -38 2 -15 -1 -44 -6 -64 -4 -21 -11 -55 -13 -76 -4 -36 -25 -77 -25
-49 0 7 -7 56 -15 110 -29 181 -26 170 -35 148 -5 -11 -9 -37 -9 -57 -1 -20
-5 -39 -10 -42 -4 -3 -11 -28 -14 -56 -11 -95 -31 -88 -42 14 -4 34 -17 97
-30 140 l-22 79 -11 -73 c-6 -39 -8 -78 -5 -86 3 -8 1 -14 -5 -14 -5 0 -13 28
-16 62 -4 34 -14 80 -22 102 -7 23 -14 51 -14 63 0 12 -4 25 -10 28 -6 4 -10
-6 -10 -22z"/>
<path d="M5210 544 c0 -14 32 -31 81 -44 53 -14 119 -61 215 -151 61 -58 137
-109 160 -109 4 0 -19 17 -52 39 -32 21 -75 55 -94 76 -58 61 -186 152 -226
160 -20 3 -48 13 -60 22 -13 8 -24 11 -24 7z"/>
<path d="M2221 530 c-1 -22 15 -43 27 -36 6 3 13 0 15 -6 4 -10 7 -10 15 0 7
10 11 5 15 -18 4 -17 11 -29 16 -25 5 3 12 1 16 -5 10 -16 25 -12 26 8 0 13 3
12 11 -5 12 -25 28 -31 28 -11 0 6 6 3 14 -8 14 -18 15 -18 26 11 l12 30 9
-24 c5 -13 12 -22 14 -19 3 3 -1 20 -9 39 l-15 34 -15 -35 c-12 -29 -16 -32
-21 -17 -5 13 -11 15 -20 7 -9 -8 -14 -5 -19 12 l-7 23 -11 -22 c-10 -20 -11
-21 -28 -5 -10 9 -22 30 -26 46 -7 28 -8 28 -21 10 -18 -25 -22 -24 -38 6 -8
14 -14 19 -14 10z"/>
<path d="M1021 447 c-6 -34 -13 -84 -17 -112 -3 -27 -8 -57 -11 -65 -3 -8 -5
-25 -4 -37 4 -42 -14 -24 -31 30 -12 39 -17 45 -17 25 -1 -15 3 -29 8 -32 4
-3 12 -25 15 -48 l7 -43 16 30 c18 33 18 34 37 180 10 70 14 88 16 60 2 -22 4
-44 5 -50 1 -5 5 -32 10 -60 4 -27 12 -61 18 -75 5 -14 9 -38 8 -55 -1 -16 3
-37 9 -45 7 -11 9 -1 6 35 -2 28 -5 57 -8 65 -14 42 -29 117 -34 180 -4 39
-10 73 -14 75 -5 3 -13 -23 -19 -58z"/>
<path d="M3041 487 c-6 -16 -11 -34 -11 -42 0 -8 -4 -17 -10 -20 -5 -3 -10 3
-10 14 0 11 -4 23 -10 26 -5 3 -10 -1 -10 -9 0 -28 -20 -27 -31 1 l-12 28 -8
-29 c-11 -41 -29 -48 -50 -23 -15 19 -18 20 -24 6 -4 -10 -15 -14 -33 -11 -40
5 -55 -16 -40 -56 12 -32 28 -43 28 -19 0 6 9 -6 18 -28 17 -37 19 -38 30 -20
11 19 11 18 12 -7 0 -32 28 -108 40 -108 4 0 11 12 15 27 l7 28 9 -23 c13 -34
31 -49 57 -47 12 1 22 -4 22 -12 0 -11 19 -18 43 -14 4 1 10 -6 13 -14 8 -20
24 -9 24 16 0 11 5 17 10 14 6 -3 10 -14 10 -24 0 -19 26 -59 33 -51 2 3 8 16
11 30 7 23 6 24 -8 6 -14 -17 -15 -15 -26 23 -14 53 -27 59 -39 19 -5 -18 -10
-25 -10 -14 -1 12 -6 16 -16 12 -8 -3 -15 -1 -15 5 0 6 -5 7 -10 4 -6 -3 -13
1 -16 9 -3 9 -15 16 -26 16 -23 0 -43 18 -52 48 -9 26 -26 20 -26 -9 0 -10 -4
-19 -10 -19 -8 0 -17 24 -34 103 -7 29 -25 28 -27 -1 0 -9 -6 -1 -13 18 -9 23
-19 34 -30 32 -10 -2 -16 4 -16 16 0 27 9 32 36 21 19 -7 26 -5 31 7 5 13 8
13 22 1 20 -18 51 -18 51 0 0 18 17 16 24 -4 6 -14 8 -14 21 3 14 18 15 18 21
-3 9 -33 21 -28 29 10 11 47 15 51 33 26 l15 -22 12 23 c10 19 13 20 18 6 4
-9 13 -16 22 -16 8 0 15 -4 15 -10 0 -5 7 -10 15 -10 8 0 15 5 15 11 0 8 4 8
14 0 11 -10 16 -8 21 9 8 26 -3 40 -15 20 -9 -13 -10 -13 -10 0 -1 12 -3 11
-11 -3 -8 -14 -14 -16 -25 -6 -8 6 -14 8 -14 3 -1 -5 -9 7 -19 26 l-19 35 -10
-35 -10 -35 -15 35 -15 35 -11 -28z"/>
<path d="M1446 463 c9 -38 23 -73 28 -73 2 0 7 7 10 16 3 8 2 12 -4 9 -5 -3
-12 10 -16 30 -3 19 -10 38 -16 41 -5 3 -6 -6 -2 -23z"/>
<path d="M2470 474 c0 -16 29 -52 31 -37 0 4 4 -2 10 -15 5 -13 13 -20 19 -17
5 3 10 1 10 -4 0 -6 5 -11 10 -11 6 0 10 7 10 15 0 13 -12 19 -32 16 -4 0 -10
8 -13 19 -4 11 -11 18 -16 15 -5 -4 -9 3 -9 14 0 12 -4 21 -10 21 -5 0 -10 -7
-10 -16z"/>
<path d="M1515 465 c-4 -11 -11 -30 -16 -43 -11 -28 -11 -32 0 -32 4 0 13 15
19 33 9 27 10 29 11 8 1 -28 41 -111 53 -111 4 0 10 11 14 25 l6 25 19 -24
c10 -13 19 -29 19 -34 0 -5 7 -12 15 -16 10 -3 21 7 34 32 15 28 20 32 21 16
0 -11 12 -31 27 -45 21 -19 25 -20 20 -6 -4 10 -7 21 -7 23 0 3 -4 2 -10 -1
-5 -3 -10 0 -10 7 -1 7 -7 27 -14 43 l-13 30 -16 -37 c-9 -21 -20 -38 -24 -38
-4 0 -19 16 -33 36 l-24 37 -12 -29 -12 -29 -7 27 c-4 16 -11 26 -15 23 -5 -3
-11 12 -15 33 -3 20 -10 44 -15 52 -7 12 -10 11 -15 -5z"/>
<path d="M3240 467 c0 -20 30 -58 41 -52 5 4 9 11 9 16 0 6 -5 7 -10 4 -6 -3
-14 5 -20 19 -10 28 -20 34 -20 13z"/>
<path d="M1420 455 c0 -8 5 -15 10 -15 6 0 10 7 10 15 0 8 -4 15 -10 15 -5 0
-10 -7 -10 -15z"/>
<path d="M3436 428 c-5 -32 -9 -39 -16 -28 -8 13 -10 13 -10 -1 0 -12 -8 -16
-25 -15 -18 1 -26 8 -31 29 -6 30 -14 33 -32 15 -9 -9 -12 -7 -12 10 0 12 -4
22 -10 22 -12 0 -12 -2 0 -35 8 -22 13 -25 24 -16 11 9 16 5 25 -20 9 -26 13
-29 25 -20 11 10 17 8 25 -6 10 -17 10 -17 11 2 0 17 2 17 10 5 7 -12 11 -8
16 18 4 17 10 32 14 32 4 0 11 -15 14 -32 7 -31 8 -32 21 -14 13 17 15 18 15
3 0 -23 30 -22 31 1 0 9 5 2 10 -15 11 -39 22 -42 37 -10 8 17 11 18 11 5 1
-15 44 -68 56 -68 2 0 -1 14 -6 30 -6 17 -17 30 -24 30 -7 0 -17 17 -23 38
l-10 37 -7 -32 c-8 -36 -25 -45 -25 -14 0 11 -3 27 -7 37 -5 14 -9 11 -19 -17
l-12 -34 -7 33 c-8 34 -20 33 -27 -3 -3 -12 -8 -1 -12 28 -10 58 -21 60 -30 5z"/>
<path d="M2630 426 c-12 -33 -12 -36 -1 -36 10 0 25 50 17 58 -3 2 -10 -7 -16
-22z"/>
<path d="M3225 437 c-4 -10 -5 -21 -1 -24 10 -10 18 4 13 24 -4 17 -4 17 -12
0z"/>
<path d="M2560 437 c0 -2 9 -21 20 -43 14 -28 19 -33 20 -18 0 11 5 25 11 31
6 6 9 17 6 25 -3 8 -8 4 -15 -12 l-11 -25 -7 23 c-3 12 -10 22 -15 22 -5 0 -9
-1 -9 -3z"/>
<path d="M2657 416 c-10 -25 -8 -33 3 -16 5 8 10 10 10 4 0 -7 7 -14 15 -18
10 -3 15 1 15 11 0 9 -3 13 -7 10 -3 -4 -11 1 -18 10 -11 14 -12 14 -18 -1z"/>
<path d="M5519 413 c-13 -17 -13 -17 6 -3 11 8 22 16 24 17 2 2 0 3 -6 3 -6 0
-17 -8 -24 -17z"/>
<path d="M2707 393 c-3 -16 -3 -30 -1 -33 7 -7 24 23 24 43 0 27 -17 20 -23
-10z"/>
<path d="M2741 389 c-7 -12 -10 -23 -7 -26 3 -3 8 2 12 11 5 13 9 14 20 5 8
-7 14 -7 14 -1 0 5 -6 14 -13 20 -10 8 -16 6 -26 -9z"/>
<path d="M1257 343 c-3 -5 -7 -27 -8 -49 -1 -21 -5 -52 -10 -69 -4 -16 -11
-49 -14 -73 -3 -24 -10 -53 -15 -65 -8 -20 -9 -20 -10 8 -4 66 -20 144 -31
151 -5 3 -9 17 -9 32 0 15 -4 33 -9 41 -10 16 -14 3 -37 -139 -25 -152 -27
-173 -9 -115 14 44 31 150 35 210 2 28 40 -112 43 -160 2 -22 8 -49 14 -59 9
-17 12 -15 24 20 7 21 14 46 16 54 8 42 16 90 22 135 l6 50 14 -65 c8 -36 18
-70 22 -76 5 -5 6 -19 3 -30 -3 -11 0 -33 7 -49 7 -17 11 -36 10 -42 -2 -16
19 -57 26 -50 2 3 0 15 -7 26 -8 16 -8 21 1 21 7 0 5 10 -6 26 -9 15 -19 43
-20 63 -2 20 -6 47 -10 61 -3 14 -8 38 -11 53 -9 49 -30 101 -37 90z"/>
<path d="M1807 330 c-4 -14 -7 -38 -7 -53 0 -41 -16 -25 -24 24 -4 23 -9 39
-12 36 -8 -8 16 -117 26 -117 11 0 20 26 21 63 1 29 2 28 16 -16 8 -27 17 -46
20 -43 7 6 43 -32 43 -46 0 -4 4 -8 10 -8 5 0 12 16 16 35 9 50 20 51 29 2 6
-34 8 -38 15 -22 7 18 8 17 11 -8 6 -39 20 -38 34 3 l12 35 6 -42 c6 -38 35
-72 49 -58 3 3 11 -13 18 -35 16 -47 29 -47 45 -1 l11 34 18 -44 18 -44 13 40
c7 22 13 32 14 22 1 -23 30 -91 36 -86 2 3 -5 30 -17 62 -20 54 -38 67 -38 26
0 -29 -14 -23 -27 11 -15 41 -29 38 -38 -7 l-7 -38 -18 40 c-9 22 -22 41 -28
41 -7 1 -16 2 -22 3 -5 0 -10 9 -10 20 0 25 -20 81 -30 81 -4 0 -11 -19 -15
-42 l-7 -43 -10 33 c-5 18 -13 30 -18 27 -5 -3 -10 7 -12 22 -4 38 -27 41 -34
4 -7 -36 -24 -52 -24 -23 0 10 -10 23 -22 29 -14 6 -28 28 -38 58 -15 45 -17
47 -23 25z"/>
<path d="M3655 300 c4 -14 12 -29 17 -35 7 -7 8 -2 3 15 -4 14 -12 30 -17 35
-7 7 -8 2 -3 -15z"/>
<path d="M2046 257 c3 -10 9 -15 12 -12 3 3 0 11 -7 18 -10 9 -11 8 -5 -6z"/>
<path d="M495 201 c-3 -5 -2 -12 3 -15 5 -3 9 1 9 9 0 17 -3 19 -12 6z"/>
<path d="M3397 119 c-6 -49 -12 -56 -31 -40 -11 9 -15 9 -19 -1 -4 -8 -6 -7
-6 5 -1 9 -5 17 -11 17 -5 0 -14 -8 -19 -17 -6 -10 -11 -13 -11 -6 0 6 -5 24
-11 40 l-11 28 -14 -34 c-17 -40 -17 -41 -4 -41 6 0 10 10 11 23 1 19 3 17 15
-10 15 -35 34 -44 34 -17 0 10 4 12 13 7 6 -4 15 -8 20 -9 4 -1 9 -3 12 -4 19
-9 31 -1 41 25 l11 30 7 -33 c8 -34 28 -39 34 -9 2 12 -1 15 -12 11 -11 -4
-17 4 -22 30 -9 51 -20 53 -27 5z"/>
<path d="M988 115 c-3 -15 0 -26 10 -30 11 -4 12 -8 2 -20 -14 -16 -6 -65 11
-65 6 0 6 7 -1 21 -9 15 -8 24 1 35 8 10 9 17 0 28 -6 7 -9 20 -5 29 3 8 1 18
-4 21 -5 3 -12 -5 -14 -19z"/>
<path d="M3193 123 c-15 -5 -17 -33 -3 -33 6 0 10 5 10 11 0 6 5 7 13 2 21
-13 37 -12 37 4 0 10 -6 13 -17 9 -9 -4 -19 -3 -22 2 -3 5 -12 7 -18 5z"/>
<path d="M3460 49 c0 -6 7 -9 15 -5 9 3 15 0 15 -9 0 -9 9 -13 28 -11 15 1 35
-4 45 -12 9 -8 17 -11 17 -5 0 17 -34 39 -58 37 -12 -1 -25 3 -28 7 -8 13 -34
11 -34 -2z"/>
</g>
</svg>
